<?xml version="1.0" encoding="UTF-8"?>
<!-- Generated by Pixelmator Pro 3.5.7 -->
<svg width="162" height="56" viewBox="0 0 162 56" xmlns="http://www.w3.org/2000/svg">
    <path id="Path" fill="#3c52d9" stroke="none" d="M 55.27 23.195999 C 56.243 24.186001 56.243 25.790001 55.27 26.778999 L 45.083 37.140999 C 44.774315 37.457745 44.35078 37.636383 43.908501 37.636383 C 43.466217 37.636383 43.042686 37.457745 42.734001 37.140999 L 30.85 25.052 C 30.382999 24.577 30.120001 23.931999 30.120001 23.260002 L 30.120001 1.693001 C 30.120001 0.188 31.909 -0.566002 32.955002 0.499001 L 55.269001 23.196999 L 55.27 23.195999 Z M 10.301 36.504002 C 10.76401 36.978958 11.399201 37.246819 12.0625 37.246819 C 12.725799 37.246819 13.36099 36.978958 13.824 36.504002 L 25.114 25.018999 C 25.580999 24.544001 25.843 23.899002 25.843 23.226997 L 25.843 1.713001 C 25.843 0.208 24.054001 -0.546001 23.007999 0.518002 L 0.73 23.182999 C -0.243 24.173 -0.243 25.777 0.73 26.767 L 10.301 36.504002 Z"/>
    <g id="Group">
        <path id="path1" fill="#2ef2ff" stroke="none" d="M 16.678598 40.172935 L 25.707645 31.143888 C 26.917879 29.933655 28.880058 29.933655 30.090292 31.143888 L 39.226109 40.279709 C 40.436348 41.489944 40.436348 43.452122 39.226112 44.662357 L 30.197065 53.691402 C 28.98683 54.901638 27.024651 54.901638 25.814415 53.691402 L 16.678596 44.555584 C 15.468363 43.345352 15.468363 41.383171 16.678598 40.172935 Z"/>
        <path id="path2" fill="#eaedff" stroke="none" visibility="hidden" d="M 84.266998 39.766998 L 79.671997 33.160999 L 75.748001 39.766998 L 68.267998 39.766998 L 75.948997 27.784 L 67.999001 16.363998 L 75.747002 16.363998 L 80.208 22.804001 L 84.031998 16.363998 L 91.512001 16.363998 L 83.931999 28.148001 L 92.015999 39.765999 L 84.267998 39.765999 L 84.266998 39.766998 Z M 102.253998 39.999001 C 100.040001 39.999001 98.004997 39.490002 96.149002 38.472 C 94.292999 37.431999 92.817001 36.005001 91.722 34.189999 C 90.649002 32.353001 90.112 30.284 90.112 27.982 C 90.112 25.68 90.649002 23.622002 91.722 21.807999 C 92.782089 20.005646 94.312355 18.525505 96.149002 17.526001 C 98.004997 16.507999 100.040001 15.999001 102.253998 15.999001 C 104.489998 15.999001 106.524002 16.507999 108.358002 17.526001 C 110.213997 18.543999 111.679001 19.971001 112.751999 21.807999 C 113.824997 23.623001 114.362 25.681 114.362 27.982 C 114.362 30.283001 113.824997 32.353001 112.751999 34.189999 C 111.698189 35.985825 110.180428 37.464893 108.358002 38.472 C 106.501999 39.490002 104.467003 39.999001 102.253998 39.999001 L 102.253998 39.999001 Z M 102.253998 33.958 C 103.931 33.958 105.25 33.416 106.210999 32.332001 C 107.195 31.247999 107.686996 29.798 107.686996 27.983 C 107.686996 26.124001 107.195 24.664 106.210999 23.600998 C 105.25 22.516998 103.931 21.973999 102.253998 21.973999 C 100.554001 21.973999 99.223999 22.515999 98.262001 23.600998 C 97.300003 24.663 96.82 26.124001 96.82 27.983 C 96.82 29.82 97.301003 31.280001 98.262001 32.365002 C 99.223999 33.426998 100.554001 33.958 102.253998 33.958 Z M 128.285004 39.766998 L 123.589996 31.136 L 122.885002 31.136 L 122.885002 39.766998 L 116.310997 39.766998 L 116.310997 16.363998 L 126.675003 16.363998 C 128.576004 16.363998 130.186005 16.695999 131.505005 17.360001 C 132.824997 18.001999 133.820007 18.898003 134.490997 20.049 C 135.160995 21.178001 135.496994 22.450001 135.496994 23.865997 C 135.496994 25.459 135.050003 26.865 134.154999 28.082001 C 133.283005 29.277 131.996994 30.129 130.298004 30.638 L 135.630997 39.766998 L 128.285004 39.766998 L 128.285004 39.766998 Z M 122.885002 26.688 L 126.139 26.688 C 127.032997 26.688 127.704002 26.478001 128.151001 26.056999 C 128.598007 25.636 128.822006 25.028 128.822006 24.231001 C 128.822006 23.479 128.587006 22.891998 128.117996 22.472 C 127.669998 22.028999 127.011002 21.807999 126.139 21.807999 L 122.885002 21.807999 L 122.885002 26.688 L 122.885002 26.688 Z M 153.781006 35.949001 L 145.395996 35.949001 L 144.121002 39.766998 L 137.212006 39.766998 L 145.832001 16.364998 L 153.412003 16.364998 L 161.998993 39.768002 L 155.056 39.768002 L 153.781006 35.950001 L 153.781006 35.949001 Z M 152.138 30.969999 L 149.589005 23.402 L 147.072998 30.971001 L 152.138 30.971001 L 152.138 30.969999 Z"/>
        <text id="SAAS" xml:space="preserve" x="69" y="40" font-family="Arial Black" font-size="30" font-weight="800" fill="#ffffff">SAAS</text>
        <text id="CREATIVE-SOLUTIONS" xml:space="preserve" x="70" y="16" font-family="Arial Black" font-size="7" font-weight="800" fill="#ffffff">CREATIVE SOLUTIONS</text>
    </g>
</svg>
